# xmcd
#
# Track frame offsets: 
#        150
#        21725
#        36737
#        60908
#        84424
#        101586
#        118029
#        136224
#        167231
#        185022
#        205896
#        234391
#        249193
#        269286
#        284684
#        288946
#
# Disc length: 4136 seconds
#
# Revision: 1
# Processed by: cddbd v1.5.2PL0 Copyright (c) Steve Scherf et al.
# Submitted via: ExactAudioCopy v1.3
#
DISCID=ee102610
DTITLE=Buddy Guy - The Blues Is Alive And Well
DYEAR=2018
DGENRE=Blues
TTITLE0=A Few Good Years
TTITLE1=Guilty As Charged
TTITLE2=Cognac
TTITLE3=The Blues Is Alive And Well
TTITLE4=Bad Day
TTITLE5=Blue No More
TTITLE6=Whiskey For Sale
TTITLE7=You Did The Crime
TTITLE8=Old Fashioned
TTITLE9=When My Day Comes
TTITLE10=Nine Below Zero
TTITLE11=Ooh Daddy
TTITLE12=Somebody Up There
TTITLE13=End Of The Line
TTITLE14=Milking Muthers For Ya
TTITLE15=In This Day And Age
EXTD=
EXTT0=
EXTT1=
EXTT2=
EXTT3=
EXTT4=
EXTT5=
EXTT6=
EXTT7=
EXTT8=
EXTT9=
EXTT10=
EXTT11=
EXTT12=
EXTT13=
EXTT14=
EXTT15=
PLAYORDER=
